<?xml version="1.0" encoding="UTF-8"?>
<svg id="Layer_1" data-name="Layer 1" xmlns="http://www.w3.org/2000/svg" viewBox="0 0 398 494">
  <defs>
    <style>
      .cls-1 {
        fill: #2e2e3d;
      }
    </style>
  </defs>
  <path class="cls-1" d="m199,49c51.83,0,94,42.17,94,94v94H105v-94c0-51.83,42.17-94,94-94m0-49h0C120.02,0,56,64.02,56,143v143h286v-143C342,64.02,277.98,0,199,0h0Z"/>
  <path class="cls-1" d="m345.08,237H52.92c-29.23,0-52.92,23.69-52.92,52.92v151.15c0,29.23,23.69,52.92,52.92,52.92h292.15c29.23,0,52.92-23.69,52.92-52.92v-151.15c0-29.23-23.69-52.92-52.92-52.92Zm-133.93,119.72v62.56c0,7.03-5.7,12.72-12.72,12.72h0c-7.03,0-12.72-5.7-12.72-12.72v-63.07c-10.92-5.04-18.51-16.08-18.51-28.9,0-17.57,14.24-31.81,31.81-31.81s31.81,14.24,31.81,31.81c0,13.27-8.12,24.63-19.67,29.4Z"/>
</svg>